<?xml version="1.0" encoding="UTF-8" standalone="no"?>
<!DOCTYPE svg PUBLIC "-//W3C//DTD SVG 1.1//EN"
 "http://www.w3.org/Graphics/SVG/1.1/DTD/svg11.dtd">
<!-- Generated by graphviz version 2.38.0 (20140413.2041)
 -->
<!-- Title: DecisionTree Pages: 1 -->
<svg width="581pt" height="305pt"
 viewBox="0.00 0.00 581.00 305.00" xmlns="http://www.w3.org/2000/svg" xmlns:xlink="http://www.w3.org/1999/xlink">
<g id="graph0" class="graph" transform="scale(1 1) rotate(0) translate(4 301)">
<title>DecisionTree</title>
<polygon fill="white" stroke="none" points="-4,4 -4,-301 577,-301 577,4 -4,4"/>
<!-- 9727904 -->
<g id="node1" class="node"><title>9727904</title>
<polygon fill="#0096ff" stroke="black" points="465.5,-297 373.5,-297 373.5,-261 465.5,-261 465.5,-297"/>
<text text-anchor="middle" x="419.5" y="-275.3" font-family="Consolas" font-size="14.00">likes cats</text>
</g>
<!-- 9727856 -->
<g id="node2" class="node"><title>9727856</title>
<polygon fill="#0096ff" stroke="black" points="365.5,-210 303.5,-210 303.5,-174 365.5,-174 365.5,-210"/>
<text text-anchor="middle" x="334.5" y="-188.3" font-family="Consolas" font-size="14.00">exists</text>
</g>
<!-- 9727904&#45;&gt;9727856 -->
<g id="edge1" class="edge"><title>9727904&#45;&gt;9727856</title>
<path fill="none" stroke="blue" d="M402.299,-260.799C389.856,-248.356 372.864,-231.364 359.004,-217.504"/>
<polygon fill="blue" stroke="blue" points="361.221,-214.772 351.675,-210.175 356.272,-219.721 361.221,-214.772"/>
<text text-anchor="middle" x="390" y="-231.8" font-family="Times New Roman,serif" font-size="14.00">no</text>
</g>
<!-- 9727504 -->
<g id="node3" class="node"><title>9727504</title>
<polygon fill="#0096ff" stroke="black" points="573,-210 384,-210 384,-174 573,-174 573,-210"/>
<text text-anchor="middle" x="478.5" y="-188.3" font-family="Consolas" font-size="14.00">has numbers in its name</text>
</g>
<!-- 9727904&#45;&gt;9727504 -->
<g id="edge2" class="edge"><title>9727904&#45;&gt;9727504</title>
<path fill="none" stroke="red" d="M431.44,-260.799C439.836,-248.702 451.218,-232.305 460.684,-218.667"/>
<polygon fill="red" stroke="red" points="463.751,-220.386 466.578,-210.175 458.001,-216.395 463.751,-220.386"/>
<text text-anchor="middle" x="463" y="-231.8" font-family="Times New Roman,serif" font-size="14.00">yes</text>
</g>
<!-- 9705024 -->
<g id="node4" class="node"><title>9705024</title>
<polygon fill="#0096ff" stroke="black" points="316,-123 127,-123 127,-87 316,-87 316,-123"/>
<text text-anchor="middle" x="221.5" y="-101.3" font-family="Consolas" font-size="14.00">is from Hunter x Hunter</text>
</g>
<!-- 9727856&#45;&gt;9705024 -->
<g id="edge3" class="edge"><title>9727856&#45;&gt;9705024</title>
<path fill="none" stroke="blue" d="M311.633,-173.799C294.632,-161.01 271.242,-143.417 252.551,-129.357"/>
<polygon fill="blue" stroke="blue" points="254.429,-126.39 244.333,-123.175 250.221,-131.984 254.429,-126.39"/>
<text text-anchor="middle" x="293" y="-144.8" font-family="Times New Roman,serif" font-size="14.00">no</text>
</g>
<!-- 9705264 -->
<g id="node5" class="node"><title>9705264</title>
<polygon fill="#0096ff" stroke="black" points="418.5,-123 334.5,-123 334.5,-87 418.5,-87 418.5,-123"/>
<text text-anchor="middle" x="376.5" y="-101.3" font-family="Consolas" font-size="14.00">is plural</text>
</g>
<!-- 9727856&#45;&gt;9705264 -->
<g id="edge4" class="edge"><title>9727856&#45;&gt;9705264</title>
<path fill="none" stroke="red" d="M342.999,-173.799C348.863,-161.932 356.771,-145.928 363.431,-132.449"/>
<polygon fill="red" stroke="red" points="366.721,-133.691 368.013,-123.175 360.446,-130.59 366.721,-133.691"/>
<text text-anchor="middle" x="368" y="-144.8" font-family="Times New Roman,serif" font-size="14.00">yes</text>
</g>
<!-- 9727392 -->
<g id="node10" class="node"><title>9727392</title>
<polygon fill="#ff6900" stroke="black" points="497.5,-123 443.5,-123 443.5,-87 497.5,-87 497.5,-123"/>
<text text-anchor="middle" x="470.5" y="-101.3" font-family="Consolas" font-size="14.00">Ded</text>
</g>
<!-- 9727504&#45;&gt;9727392 -->
<g id="edge9" class="edge"><title>9727504&#45;&gt;9727392</title>
<path fill="none" stroke="blue" d="M476.881,-173.799C475.786,-162.163 474.316,-146.548 473.063,-133.237"/>
<polygon fill="blue" stroke="blue" points="476.538,-132.803 472.117,-123.175 469.569,-133.459 476.538,-132.803"/>
<text text-anchor="middle" x="483" y="-144.8" font-family="Times New Roman,serif" font-size="14.00">no</text>
</g>
<!-- 9727280 -->
<g id="node11" class="node"><title>9727280</title>
<polygon fill="#ff6900" stroke="black" points="569.5,-123 515.5,-123 515.5,-87 569.5,-87 569.5,-123"/>
<text text-anchor="middle" x="542.5" y="-101.3" font-family="Consolas" font-size="14.00">Ded32</text>
</g>
<!-- 9727504&#45;&gt;9727280 -->
<g id="edge10" class="edge"><title>9727504&#45;&gt;9727280</title>
<path fill="none" stroke="red" d="M491.451,-173.799C500.647,-161.587 513.141,-144.992 523.467,-131.278"/>
<polygon fill="red" stroke="red" points="526.349,-133.269 529.568,-123.175 520.757,-129.059 526.349,-133.269"/>
<text text-anchor="middle" x="524" y="-144.8" font-family="Times New Roman,serif" font-size="14.00">yes</text>
</g>
<!-- 9727744 -->
<g id="node6" class="node"><title>9727744</title>
<polygon fill="#ff6900" stroke="black" points="189,-36 0,-36 0,-0 189,-0 189,-36"/>
<text text-anchor="middle" x="94.5" y="-14.3" font-family="Consolas" font-size="14.00">IDK, not Ded I guess...</text>
</g>
<!-- 9705024&#45;&gt;9727744 -->
<g id="edge5" class="edge"><title>9705024&#45;&gt;9727744</title>
<path fill="none" stroke="blue" d="M195.8,-86.799C176.434,-73.8376 149.693,-55.9405 128.549,-41.7888"/>
<polygon fill="blue" stroke="blue" points="130.419,-38.8289 120.162,-36.1754 126.526,-44.6462 130.419,-38.8289"/>
<text text-anchor="middle" x="174" y="-57.8" font-family="Times New Roman,serif" font-size="14.00">no</text>
</g>
<!-- 9704912 -->
<g id="node7" class="node"><title>9704912</title>
<polygon fill="#ff6900" stroke="black" points="299.5,-36 207.5,-36 207.5,-0 299.5,-0 299.5,-36"/>
<text text-anchor="middle" x="253.5" y="-14.3" font-family="Consolas" font-size="14.00">Gon Freecs</text>
</g>
<!-- 9705024&#45;&gt;9704912 -->
<g id="edge6" class="edge"><title>9705024&#45;&gt;9704912</title>
<path fill="none" stroke="red" d="M227.976,-86.799C232.4,-75.0474 238.351,-59.2383 243.395,-45.8421"/>
<polygon fill="red" stroke="red" points="246.786,-46.7674 247.034,-36.1754 240.235,-44.301 246.786,-46.7674"/>
<text text-anchor="middle" x="249" y="-57.8" font-family="Times New Roman,serif" font-size="14.00">yes</text>
</g>
<!-- 9727632 -->
<g id="node8" class="node"><title>9727632</title>
<polygon fill="#ff6900" stroke="black" points="387.5,-36 333.5,-36 333.5,-0 387.5,-0 387.5,-36"/>
<text text-anchor="middle" x="360.5" y="-14.3" font-family="Consolas" font-size="14.00">a dog</text>
</g>
<!-- 9705264&#45;&gt;9727632 -->
<g id="edge7" class="edge"><title>9705264&#45;&gt;9727632</title>
<path fill="none" stroke="blue" d="M373.262,-86.799C371.072,-75.1626 368.133,-59.5479 365.627,-46.2368"/>
<polygon fill="blue" stroke="blue" points="369.023,-45.3554 363.733,-36.1754 362.143,-46.6503 369.023,-45.3554"/>
<text text-anchor="middle" x="377" y="-57.8" font-family="Times New Roman,serif" font-size="14.00">no</text>
</g>
<!-- 9705152 -->
<g id="node9" class="node"><title>9705152</title>
<polygon fill="#ff6900" stroke="black" points="483,-36 406,-36 406,-0 483,-0 483,-36"/>
<text text-anchor="middle" x="444.5" y="-14.3" font-family="Consolas" font-size="14.00">two dogs</text>
</g>
<!-- 9705264&#45;&gt;9705152 -->
<g id="edge8" class="edge"><title>9705264&#45;&gt;9705152</title>
<path fill="none" stroke="red" d="M390.261,-86.799C400.031,-74.5865 413.306,-57.9921 424.278,-44.2776"/>
<polygon fill="red" stroke="red" points="427.246,-46.1706 430.76,-36.1754 421.78,-41.7977 427.246,-46.1706"/>
<text text-anchor="middle" x="425" y="-57.8" font-family="Times New Roman,serif" font-size="14.00">yes</text>
</g>
</g>
</svg>
