<?xml version="1.0" encoding="UTF-8" standalone="no"?>
<!DOCTYPE svg PUBLIC "-//W3C//DTD SVG 1.1//EN"
 "http://www.w3.org/Graphics/SVG/1.1/DTD/svg11.dtd">
<!-- Generated by graphviz version 2.38.0 (20140413.2041)
 -->
<!-- Title: DecisionTree Pages: 1 -->
<svg width="454pt" height="305pt"
 viewBox="0.00 0.00 454.00 305.00" xmlns="http://www.w3.org/2000/svg" xmlns:xlink="http://www.w3.org/1999/xlink">
<g id="graph0" class="graph" transform="scale(1 1) rotate(0) translate(4 301)">
<title>DecisionTree</title>
<polygon fill="white" stroke="none" points="-4,4 -4,-301 450,-301 450,4 -4,4"/>
<!-- 10295536 -->
<g id="node1" class="node"><title>10295536</title>
<polygon fill="#0096ff" stroke="black" points="338.5,-297 246.5,-297 246.5,-261 338.5,-261 338.5,-297"/>
<text text-anchor="middle" x="292.5" y="-275.3" font-family="Consolas" font-size="14.00">likes cats</text>
</g>
<!-- 10295328 -->
<g id="node2" class="node"><title>10295328</title>
<polygon fill="#0096ff" stroke="black" points="238.5,-210 176.5,-210 176.5,-174 238.5,-174 238.5,-210"/>
<text text-anchor="middle" x="207.5" y="-188.3" font-family="Consolas" font-size="14.00">exists</text>
</g>
<!-- 10295536&#45;&gt;10295328 -->
<g id="edge1" class="edge"><title>10295536&#45;&gt;10295328</title>
<path fill="none" stroke="blue" d="M275.299,-260.799C262.856,-248.356 245.864,-231.364 232.004,-217.504"/>
<polygon fill="blue" stroke="blue" points="234.221,-214.772 224.675,-210.175 229.272,-219.721 234.221,-214.772"/>
<text text-anchor="middle" x="263" y="-231.8" font-family="Times New Roman,serif" font-size="14.00">no</text>
</g>
<!-- 10317488 -->
<g id="node3" class="node"><title>10317488</title>
<polygon fill="#0096ff" stroke="black" points="446,-210 257,-210 257,-174 446,-174 446,-210"/>
<text text-anchor="middle" x="351.5" y="-188.3" font-family="Consolas" font-size="14.00">has numbers in its name</text>
</g>
<!-- 10295536&#45;&gt;10317488 -->
<g id="edge2" class="edge"><title>10295536&#45;&gt;10317488</title>
<path fill="none" stroke="red" d="M304.44,-260.799C312.836,-248.702 324.218,-232.305 333.684,-218.667"/>
<polygon fill="red" stroke="red" points="336.751,-220.386 339.578,-210.175 331.001,-216.395 336.751,-220.386"/>
<text text-anchor="middle" x="336" y="-231.8" font-family="Times New Roman,serif" font-size="14.00">yes</text>
</g>
<!-- 10295136 -->
<g id="node4" class="node"><title>10295136</title>
<polygon fill="#ff6900" stroke="black" points="189,-123 0,-123 0,-87 189,-87 189,-123"/>
<text text-anchor="middle" x="94.5" y="-101.3" font-family="Consolas" font-size="14.00">IDK, not Ded I guess...</text>
</g>
<!-- 10295328&#45;&gt;10295136 -->
<g id="edge3" class="edge"><title>10295328&#45;&gt;10295136</title>
<path fill="none" stroke="blue" d="M184.633,-173.799C167.632,-161.01 144.242,-143.417 125.551,-129.357"/>
<polygon fill="blue" stroke="blue" points="127.429,-126.39 117.333,-123.175 123.221,-131.984 127.429,-126.39"/>
<text text-anchor="middle" x="166" y="-144.8" font-family="Times New Roman,serif" font-size="14.00">no</text>
</g>
<!-- 10294928 -->
<g id="node5" class="node"><title>10294928</title>
<polygon fill="#0096ff" stroke="black" points="291.5,-123 207.5,-123 207.5,-87 291.5,-87 291.5,-123"/>
<text text-anchor="middle" x="249.5" y="-101.3" font-family="Consolas" font-size="14.00">is plural</text>
</g>
<!-- 10295328&#45;&gt;10294928 -->
<g id="edge4" class="edge"><title>10295328&#45;&gt;10294928</title>
<path fill="none" stroke="red" d="M215.999,-173.799C221.863,-161.932 229.771,-145.928 236.431,-132.449"/>
<polygon fill="red" stroke="red" points="239.721,-133.691 241.013,-123.175 233.446,-130.59 239.721,-133.691"/>
<text text-anchor="middle" x="241" y="-144.8" font-family="Times New Roman,serif" font-size="14.00">yes</text>
</g>
<!-- 10317296 -->
<g id="node8" class="node"><title>10317296</title>
<polygon fill="#ff6900" stroke="black" points="370.5,-123 316.5,-123 316.5,-87 370.5,-87 370.5,-123"/>
<text text-anchor="middle" x="343.5" y="-101.3" font-family="Consolas" font-size="14.00">Ded</text>
</g>
<!-- 10317488&#45;&gt;10317296 -->
<g id="edge7" class="edge"><title>10317488&#45;&gt;10317296</title>
<path fill="none" stroke="blue" d="M349.881,-173.799C348.786,-162.163 347.316,-146.548 346.063,-133.237"/>
<polygon fill="blue" stroke="blue" points="349.538,-132.803 345.117,-123.175 342.569,-133.459 349.538,-132.803"/>
<text text-anchor="middle" x="356" y="-144.8" font-family="Times New Roman,serif" font-size="14.00">no</text>
</g>
<!-- 10317104 -->
<g id="node9" class="node"><title>10317104</title>
<polygon fill="#ff6900" stroke="black" points="442.5,-123 388.5,-123 388.5,-87 442.5,-87 442.5,-123"/>
<text text-anchor="middle" x="415.5" y="-101.3" font-family="Consolas" font-size="14.00">Ded32</text>
</g>
<!-- 10317488&#45;&gt;10317104 -->
<g id="edge8" class="edge"><title>10317488&#45;&gt;10317104</title>
<path fill="none" stroke="red" d="M364.451,-173.799C373.647,-161.587 386.141,-144.992 396.467,-131.278"/>
<polygon fill="red" stroke="red" points="399.349,-133.269 402.568,-123.175 393.757,-129.059 399.349,-133.269"/>
<text text-anchor="middle" x="397" y="-144.8" font-family="Times New Roman,serif" font-size="14.00">yes</text>
</g>
<!-- 10294736 -->
<g id="node6" class="node"><title>10294736</title>
<polygon fill="#ff6900" stroke="black" points="234.5,-36 180.5,-36 180.5,-0 234.5,-0 234.5,-36"/>
<text text-anchor="middle" x="207.5" y="-14.3" font-family="Consolas" font-size="14.00">a dog</text>
</g>
<!-- 10294928&#45;&gt;10294736 -->
<g id="edge5" class="edge"><title>10294928&#45;&gt;10294736</title>
<path fill="none" stroke="blue" d="M241.001,-86.799C235.137,-74.9322 227.229,-58.9279 220.569,-45.4488"/>
<polygon fill="blue" stroke="blue" points="223.554,-43.5902 215.987,-36.1754 217.279,-46.6912 223.554,-43.5902"/>
<text text-anchor="middle" x="239" y="-57.8" font-family="Times New Roman,serif" font-size="14.00">no</text>
</g>
<!-- 10317696 -->
<g id="node7" class="node"><title>10317696</title>
<polygon fill="#ff6900" stroke="black" points="330,-36 253,-36 253,-0 330,-0 330,-36"/>
<text text-anchor="middle" x="291.5" y="-14.3" font-family="Consolas" font-size="14.00">two dogs</text>
</g>
<!-- 10294928&#45;&gt;10317696 -->
<g id="edge6" class="edge"><title>10294928&#45;&gt;10317696</title>
<path fill="none" stroke="red" d="M257.999,-86.799C263.863,-74.9322 271.771,-58.9279 278.431,-45.4488"/>
<polygon fill="red" stroke="red" points="281.721,-46.6912 283.013,-36.1754 275.446,-43.5902 281.721,-46.6912"/>
<text text-anchor="middle" x="283" y="-57.8" font-family="Times New Roman,serif" font-size="14.00">yes</text>
</g>
</g>
</svg>
