<?xml version="1.0" encoding="UTF-8" standalone="no"?>
<!DOCTYPE svg PUBLIC "-//W3C//DTD SVG 1.1//EN"
 "http://www.w3.org/Graphics/SVG/1.1/DTD/svg11.dtd">
<!-- Generated by graphviz version 2.38.0 (20140413.2041)
 -->
<!-- Title: DecisionTree Pages: 1 -->
<svg width="358pt" height="218pt"
 viewBox="0.00 0.00 357.50 218.00" xmlns="http://www.w3.org/2000/svg" xmlns:xlink="http://www.w3.org/1999/xlink">
<g id="graph0" class="graph" transform="scale(1 1) rotate(0) translate(4 214)">
<title>DecisionTree</title>
<polygon fill="white" stroke="none" points="-4,4 -4,-214 353.5,-214 353.5,4 -4,4"/>
<!-- 11343344 -->
<g id="node1" class="node"><title>11343344</title>
<polygon fill="#0096ff" stroke="black" points="349.5,-210 152.5,-210 152.5,-174 349.5,-174 349.5,-210"/>
<text text-anchor="middle" x="251" y="-188.3" font-family="Consolas" font-size="14.00">stole Erina&#39;s first kiss</text>
</g>
<!-- 11343744 -->
<g id="node2" class="node"><title>11343744</title>
<polygon fill="#0096ff" stroke="black" points="242,-123 0,-123 0,-87 242,-87 242,-123"/>
<text text-anchor="middle" x="121" y="-101.3" font-family="Consolas" font-size="14.00">stole every other Erina&#39;s kiss</text>
</g>
<!-- 11343344&#45;&gt;11343744 -->
<g id="edge1" class="edge"><title>11343344&#45;&gt;11343744</title>
<path fill="none" stroke="blue" d="M224.693,-173.799C204.869,-160.838 177.497,-142.941 155.853,-128.789"/>
<polygon fill="blue" stroke="blue" points="157.553,-125.719 147.268,-123.175 153.723,-131.577 157.553,-125.719"/>
<text text-anchor="middle" x="201.5" y="-144.8" font-family="Times New Roman,serif" font-size="14.00">no</text>
</g>
<!-- 11343152 -->
<g id="node3" class="node"><title>11343152</title>
<polygon fill="#ff6900" stroke="black" points="329.5,-123 260.5,-123 260.5,-87 329.5,-87 329.5,-123"/>
<text text-anchor="middle" x="295" y="-101.3" font-family="Consolas" font-size="14.00">me, DIO</text>
</g>
<!-- 11343344&#45;&gt;11343152 -->
<g id="edge2" class="edge"><title>11343344&#45;&gt;11343152</title>
<path fill="none" stroke="red" d="M259.904,-173.799C266.107,-161.817 274.492,-145.617 281.512,-132.057"/>
<polygon fill="red" stroke="red" points="284.62,-133.665 286.109,-123.175 278.404,-130.447 284.62,-133.665"/>
<text text-anchor="middle" x="285.5" y="-144.8" font-family="Times New Roman,serif" font-size="14.00">yes</text>
</g>
<!-- 11342960 -->
<g id="node4" class="node"><title>11342960</title>
<polygon fill="#ff6900" stroke="black" points="99,-36 15,-36 15,-0 99,-0 99,-36"/>
<text text-anchor="middle" x="57" y="-14.3" font-family="Consolas" font-size="14.00">me, Mario</text>
</g>
<!-- 11343744&#45;&gt;11342960 -->
<g id="edge3" class="edge"><title>11343744&#45;&gt;11342960</title>
<path fill="none" stroke="blue" d="M108.049,-86.799C98.8534,-74.5865 86.3588,-57.9921 76.0325,-44.2776"/>
<polygon fill="blue" stroke="blue" points="78.7432,-42.0589 69.9321,-36.1754 73.1511,-46.2694 78.7432,-42.0589"/>
<text text-anchor="middle" x="100.5" y="-57.8" font-family="Times New Roman,serif" font-size="14.00">no</text>
</g>
<!-- 11343552 -->
<g id="node5" class="node"><title>11343552</title>
<polygon fill="#ff6900" stroke="black" points="254.5,-36 117.5,-36 117.5,-0 254.5,-0 254.5,-36"/>
<text text-anchor="middle" x="186" y="-14.3" font-family="Consolas" font-size="14.00">Jonathan Joestar</text>
</g>
<!-- 11343744&#45;&gt;11343552 -->
<g id="edge4" class="edge"><title>11343744&#45;&gt;11343552</title>
<path fill="none" stroke="red" d="M134.154,-86.799C143.493,-74.5865 156.182,-57.9921 166.67,-44.2776"/>
<polygon fill="red" stroke="red" points="169.572,-46.2451 172.866,-36.1754 164.011,-41.9929 169.572,-46.2451"/>
<text text-anchor="middle" x="167.5" y="-57.8" font-family="Times New Roman,serif" font-size="14.00">yes</text>
</g>
</g>
</svg>
