<?xml version="1.0" encoding="UTF-8" standalone="no"?>
<!DOCTYPE svg PUBLIC "-//W3C//DTD SVG 1.1//EN"
 "http://www.w3.org/Graphics/SVG/1.1/DTD/svg11.dtd">
<!-- Generated by graphviz version 2.38.0 (20140413.2041)
 -->
<!-- Title: DecisionTree Pages: 1 -->
<svg width="628pt" height="392pt"
 viewBox="0.00 0.00 627.50 392.00" xmlns="http://www.w3.org/2000/svg" xmlns:xlink="http://www.w3.org/1999/xlink">
<g id="graph0" class="graph" transform="scale(1 1) rotate(0) translate(4 388)">
<title>DecisionTree</title>
<polygon fill="white" stroke="none" points="-4,4 -4,-388 623.5,-388 623.5,4 -4,4"/>
<!-- 1994032 -->
<g id="node1" class="node"><title>1994032</title>
<polygon fill="#0096ff" stroke="black" points="356.5,-384 264.5,-384 264.5,-348 356.5,-348 356.5,-384"/>
<text text-anchor="middle" x="310.5" y="-362.3" font-family="Consolas" font-size="14.00">likes cats</text>
</g>
<!-- 1971520 -->
<g id="node2" class="node"><title>1971520</title>
<polygon fill="#0096ff" stroke="black" points="256.5,-297 194.5,-297 194.5,-261 256.5,-261 256.5,-297"/>
<text text-anchor="middle" x="225.5" y="-275.3" font-family="Consolas" font-size="14.00">exists</text>
</g>
<!-- 1994032&#45;&gt;1971520 -->
<g id="edge1" class="edge"><title>1994032&#45;&gt;1971520</title>
<path fill="none" stroke="blue" d="M293.299,-347.799C280.856,-335.356 263.864,-318.364 250.004,-304.504"/>
<polygon fill="blue" stroke="blue" points="252.221,-301.772 242.675,-297.175 247.272,-306.721 252.221,-301.772"/>
<text text-anchor="middle" x="281" y="-318.8" font-family="Times New Roman,serif" font-size="14.00">no</text>
</g>
<!-- 1994096 -->
<g id="node3" class="node"><title>1994096</title>
<polygon fill="#0096ff" stroke="black" points="464,-297 275,-297 275,-261 464,-261 464,-297"/>
<text text-anchor="middle" x="369.5" y="-275.3" font-family="Consolas" font-size="14.00">has numbers in its name</text>
</g>
<!-- 1994032&#45;&gt;1994096 -->
<g id="edge2" class="edge"><title>1994032&#45;&gt;1994096</title>
<path fill="none" stroke="red" d="M322.44,-347.799C330.836,-335.702 342.218,-319.305 351.684,-305.667"/>
<polygon fill="red" stroke="red" points="354.751,-307.386 357.578,-297.175 349.001,-303.395 354.751,-307.386"/>
<text text-anchor="middle" x="354" y="-318.8" font-family="Times New Roman,serif" font-size="14.00">yes</text>
</g>
<!-- 1972176 -->
<g id="node4" class="node"><title>1972176</title>
<polygon fill="#ff6900" stroke="black" points="189,-210 0,-210 0,-174 189,-174 189,-210"/>
<text text-anchor="middle" x="94.5" y="-188.3" font-family="Consolas" font-size="14.00">IDK, not Ded I guess...</text>
</g>
<!-- 1971520&#45;&gt;1972176 -->
<g id="edge3" class="edge"><title>1971520&#45;&gt;1972176</title>
<path fill="none" stroke="blue" d="M198.99,-260.799C179.014,-247.838 151.432,-229.941 129.622,-215.789"/>
<polygon fill="blue" stroke="blue" points="131.264,-212.683 120.97,-210.175 127.454,-218.555 131.264,-212.683"/>
<text text-anchor="middle" x="176" y="-231.8" font-family="Times New Roman,serif" font-size="14.00">no</text>
</g>
<!-- 1971584 -->
<g id="node5" class="node"><title>1971584</title>
<polygon fill="#0096ff" stroke="black" points="291.5,-210 207.5,-210 207.5,-174 291.5,-174 291.5,-210"/>
<text text-anchor="middle" x="249.5" y="-188.3" font-family="Consolas" font-size="14.00">is plural</text>
</g>
<!-- 1971520&#45;&gt;1971584 -->
<g id="edge4" class="edge"><title>1971520&#45;&gt;1971584</title>
<path fill="none" stroke="red" d="M230.357,-260.799C233.675,-249.047 238.139,-233.238 241.921,-219.842"/>
<polygon fill="red" stroke="red" points="245.301,-220.75 244.65,-210.175 238.565,-218.848 245.301,-220.75"/>
<text text-anchor="middle" x="249" y="-231.8" font-family="Times New Roman,serif" font-size="14.00">yes</text>
</g>
<!-- 1972848 -->
<g id="node8" class="node"><title>1972848</title>
<polygon fill="#0096ff" stroke="black" points="403.5,-210 319.5,-210 319.5,-174 403.5,-174 403.5,-210"/>
<text text-anchor="middle" x="361.5" y="-188.3" font-family="Consolas" font-size="14.00">is global</text>
</g>
<!-- 1994096&#45;&gt;1972848 -->
<g id="edge7" class="edge"><title>1994096&#45;&gt;1972848</title>
<path fill="none" stroke="blue" d="M367.881,-260.799C366.786,-249.163 365.316,-233.548 364.063,-220.237"/>
<polygon fill="blue" stroke="blue" points="367.538,-219.803 363.117,-210.175 360.569,-220.459 367.538,-219.803"/>
<text text-anchor="middle" x="374" y="-231.8" font-family="Times New Roman,serif" font-size="14.00">no</text>
</g>
<!-- 1994160 -->
<g id="node9" class="node"><title>1994160</title>
<polygon fill="#ff6900" stroke="black" points="475.5,-210 421.5,-210 421.5,-174 475.5,-174 475.5,-210"/>
<text text-anchor="middle" x="448.5" y="-188.3" font-family="Consolas" font-size="14.00">Ded32</text>
</g>
<!-- 1994096&#45;&gt;1994160 -->
<g id="edge8" class="edge"><title>1994096&#45;&gt;1994160</title>
<path fill="none" stroke="red" d="M385.487,-260.799C397.051,-248.356 412.844,-231.364 425.725,-217.504"/>
<polygon fill="red" stroke="red" points="428.293,-219.883 432.537,-210.175 423.165,-215.118 428.293,-219.883"/>
<text text-anchor="middle" x="424" y="-231.8" font-family="Times New Roman,serif" font-size="14.00">yes</text>
</g>
<!-- 1971840 -->
<g id="node6" class="node"><title>1971840</title>
<polygon fill="#ff6900" stroke="black" points="206.5,-123 152.5,-123 152.5,-87 206.5,-87 206.5,-123"/>
<text text-anchor="middle" x="179.5" y="-101.3" font-family="Consolas" font-size="14.00">a dog</text>
</g>
<!-- 1971584&#45;&gt;1971840 -->
<g id="edge5" class="edge"><title>1971584&#45;&gt;1971840</title>
<path fill="none" stroke="blue" d="M235.334,-173.799C225.277,-161.587 211.611,-144.992 200.317,-131.278"/>
<polygon fill="blue" stroke="blue" points="202.703,-128.67 193.644,-123.175 197.3,-133.12 202.703,-128.67"/>
<text text-anchor="middle" x="227" y="-144.8" font-family="Times New Roman,serif" font-size="14.00">no</text>
</g>
<!-- 1971648 -->
<g id="node7" class="node"><title>1971648</title>
<polygon fill="#ff6900" stroke="black" points="302,-123 225,-123 225,-87 302,-87 302,-123"/>
<text text-anchor="middle" x="263.5" y="-101.3" font-family="Consolas" font-size="14.00">two dogs</text>
</g>
<!-- 1971584&#45;&gt;1971648 -->
<g id="edge6" class="edge"><title>1971584&#45;&gt;1971648</title>
<path fill="none" stroke="red" d="M252.333,-173.799C254.25,-162.163 256.822,-146.548 259.014,-133.237"/>
<polygon fill="red" stroke="red" points="262.499,-133.611 260.671,-123.175 255.592,-132.474 262.499,-133.611"/>
<text text-anchor="middle" x="267" y="-144.8" font-family="Times New Roman,serif" font-size="14.00">yes</text>
</g>
<!-- 1994352 -->
<g id="node10" class="node"><title>1994352</title>
<polygon fill="#ff6900" stroke="black" points="381.5,-123 327.5,-123 327.5,-87 381.5,-87 381.5,-123"/>
<text text-anchor="middle" x="354.5" y="-101.3" font-family="Consolas" font-size="14.00">Ded</text>
</g>
<!-- 1972848&#45;&gt;1994352 -->
<g id="edge9" class="edge"><title>1972848&#45;&gt;1994352</title>
<path fill="none" stroke="blue" d="M360.083,-173.799C359.125,-162.163 357.839,-146.548 356.743,-133.237"/>
<polygon fill="blue" stroke="blue" points="360.223,-132.854 355.914,-123.175 353.247,-133.429 360.223,-132.854"/>
<text text-anchor="middle" x="366" y="-144.8" font-family="Times New Roman,serif" font-size="14.00">no</text>
</g>
<!-- 1990064 -->
<g id="node11" class="node"><title>1990064</title>
<polygon fill="#0096ff" stroke="black" points="507,-123 400,-123 400,-87 507,-87 507,-123"/>
<text text-anchor="middle" x="453.5" y="-101.3" font-family="Consolas" font-size="14.00">is alternate</text>
</g>
<!-- 1972848&#45;&gt;1990064 -->
<g id="edge10" class="edge"><title>1972848&#45;&gt;1990064</title>
<path fill="none" stroke="red" d="M380.118,-173.799C393.71,-161.241 412.317,-144.049 427.393,-130.12"/>
<polygon fill="red" stroke="red" points="429.94,-132.532 434.91,-123.175 425.19,-127.391 429.94,-132.532"/>
<text text-anchor="middle" x="423" y="-144.8" font-family="Times New Roman,serif" font-size="14.00">yes</text>
</g>
<!-- 1972656 -->
<g id="node12" class="node"><title>1972656</title>
<polygon fill="#ff6900" stroke="black" points="427,-36 320,-36 320,-0 427,-0 427,-36"/>
<text text-anchor="middle" x="373.5" y="-14.3" font-family="Consolas" font-size="14.00">the Universe</text>
</g>
<!-- 1990064&#45;&gt;1972656 -->
<g id="edge11" class="edge"><title>1990064&#45;&gt;1972656</title>
<path fill="none" stroke="blue" d="M437.311,-86.799C425.6,-74.3561 409.608,-57.3644 396.563,-43.5044"/>
<polygon fill="blue" stroke="blue" points="399.068,-41.0587 389.665,-36.1754 393.97,-45.8563 399.068,-41.0587"/>
<text text-anchor="middle" x="426" y="-57.8" font-family="Times New Roman,serif" font-size="14.00">no</text>
</g>
<!-- 1973056 -->
<g id="node13" class="node"><title>1973056</title>
<polygon fill="#ff6900" stroke="black" points="619.5,-36 445.5,-36 445.5,-0 619.5,-0 619.5,-36"/>
<text text-anchor="middle" x="532.5" y="-14.3" font-family="Consolas" font-size="14.00">an alternate universe</text>
</g>
<!-- 1990064&#45;&gt;1973056 -->
<g id="edge12" class="edge"><title>1990064&#45;&gt;1973056</title>
<path fill="none" stroke="red" d="M469.487,-86.799C481.051,-74.3561 496.844,-57.3644 509.725,-43.5044"/>
<polygon fill="red" stroke="red" points="512.293,-45.8831 516.537,-36.1754 507.165,-41.1176 512.293,-45.8831"/>
<text text-anchor="middle" x="507" y="-57.8" font-family="Times New Roman,serif" font-size="14.00">yes</text>
</g>
</g>
</svg>
